Coordinates
version=1
nRows=10
nColumns=40
inDegrees=yes

Units are S.I. units (second, meters, Newtons, ...)
If the header above contains a line with 'inDegrees', this indicates whether rotational values are in degrees (yes) or radians (no).

endheader
time	pelvis_tilt	pelvis_list	pelvis_rotation	pelvis_tx	pelvis_ty	pelvis_tz	hip_flexion_r	hip_adduction_r	hip_rotation_r	knee_angle_r	knee_angle_r_beta	ankle_angle_r	subtalar_angle_r	mtp_angle_r	hip_flexion_l	hip_adduction_l	hip_rotation_l	knee_angle_l	knee_angle_l_beta	ankle_angle_l	subtalar_angle_l	mtp_angle_l	lumbar_extension	lumbar_bending	lumbar_rotation	arm_flex_r	arm_add_r	arm_rot_r	elbow_flex_r	pro_sup_r	wrist_flex_r	wrist_dev_r	arm_flex_l	arm_add_l	arm_rot_l	elbow_flex_l	pro_sup_l	wrist_flex_l	wrist_dev_l
      0.00000000	    -18.28751233	     -0.32420813	      8.38003979	     -0.25647812	      1.05694642	      0.01798994	     49.66694938	    -12.13045710	     -7.43379400	     56.11310137	      0.97935837	    -11.64320142	    -19.76160457	      0.00000000	    102.70979228	      2.08407550	      6.88260304	    102.30360711	      1.78553478	     -5.35607761	    -12.24672249	      0.00000000	    -43.50550360	      2.87622298	     -2.68397120	     89.72276127	    -14.50800122	     37.37054759	     24.17100684	     89.22202702	      0.00000000	      0.00000000	     89.90120150	     -0.88708799	     16.07984869	     23.37268620	     89.41804068	      0.00000000	      0.00000000
      0.00833333	    -18.10759010	     -0.73748808	      8.35612119	     -0.25688315	      1.05677975	      0.01823962	     50.21677927	    -11.92197774	     -7.51382944	     58.22699779	      1.01625282	    -11.30579728	    -19.91686441	      0.00000000	    101.90357366	      2.10987750	      7.23050002	    100.66567090	      1.75694740	     -5.42439053	    -12.15955100	      0.00000000	    -43.64541511	      3.21804048	     -2.35451587	     89.73885217	    -14.54275147	     37.23973816	     24.30697695	     89.23242728	      0.00000000	      0.00000000	     89.90154937	     -0.89091594	     15.99148903	     23.52442835	     89.42222145	      0.00000000	      0.00000000
      0.01666667	    -18.37411221	     -0.55747875	      8.44731166	     -0.25771172	      1.05595256	      0.01804210	     51.44989330	    -12.41370775	     -7.26221537	     60.62752062	      1.05814985	    -10.87622401	    -20.34340214	      0.00000000	    101.36902639	      2.07863407	      6.83250036	     98.84554443	      1.72518020	     -5.56477201	    -11.89590110	      0.00000000	    -43.35396326	      3.12374216	     -2.57340288	     89.73219866	    -14.49570463	     36.97095300	     24.33321960	     89.23329488	      0.00000000	      0.00000000	     89.90260693	     -0.87681712	     15.81326716	     23.50623226	     89.42176905	      0.00000000	      0.00000000
      0.02500000	    -18.18368373	     -0.92089057	      8.43100591	     -0.25796627	      1.05559973	      0.01847210	     52.09272185	    -12.26210060	     -7.31806360	     62.88952641	      1.09762930	    -10.49312896	    -20.50081631	      0.00000000	    100.40969183	      1.99549073	      7.16891136	     97.14151828	      1.69543933	     -5.65276934	    -11.80218465	      0.00000000	    -43.48325630	      3.43175723	     -2.24470752	     89.74332344	    -14.55829460	     36.81125895	     24.53576899	     89.23512069	      0.00000000	      0.00000000	     89.90156571	     -0.86396140	     15.70548375	     23.59450433	     89.42121728	      0.00000000	      0.00000000
      0.03333333	    -18.07028986	     -1.25764940	      8.40964016	     -0.25819893	      1.05532239	      0.01879494	     52.83867008	    -12.15664560	     -7.35291123	     65.15084373	      1.13709673	    -10.06329348	    -20.69126349	      0.00000000	     99.44618318	      1.90994929	      7.49358439	     95.25709917	      1.66255002	     -5.92740067	    -11.59642754	      0.00000000	    -43.54421888	      3.69321837	     -1.94583643	     89.74734859	    -14.62431259	     36.65924976	     24.69604189	     89.23589266	      0.00000000	      0.00000000	     89.90168227	     -0.84460111	     15.68666744	     23.67407284	     89.42285026	      0.00000000	      0.00000000
      0.04166667	    -18.51206101	     -1.00357195	      8.59433528	     -0.25914527	      1.05427403	      0.01833708	     54.40468202	    -12.81913793	     -7.00178481	     67.63405831	      1.18043700	     -9.73900211	    -21.04290500	      0.00000000	     98.85326153	      2.11945007	      7.04864126	     93.22740920	      1.62712524	     -6.32896905	    -11.29280612	      0.00000000	    -43.07736098	      3.61320897	     -2.34345265	     89.74225700	    -14.51632355	     36.44798323	     24.65893292	     89.23655908	      0.00000000	      0.00000000	     89.90191440	     -0.80294132	     15.34693689	     23.57865291	     89.42170915	      0.00000000	      0.00000000
      0.05000000	    -18.33558325	     -1.38869679	      8.48320233	     -0.25918235	      1.05411201	      0.01868755	     55.12912354	    -12.58316931	     -6.97525187	     69.79988496	      1.21823781	     -9.50432869	    -21.10074700	      0.00000000	     97.64624842	      1.99100305	      7.47076106	     91.43435272	      1.59583050	     -6.31858698	    -11.41932444	      0.00000000	    -43.20633659	      3.89001273	     -1.94075503	     89.75126746	    -14.57979193	     36.37250254	     24.77078754	     89.23125717	      0.00000000	      0.00000000	     89.90110934	     -0.76593529	     15.28128802	     23.62323122	     89.41704070	      0.00000000	      0.00000000
      0.05833333	    -18.63074562	     -0.92872857	      8.48425145	     -0.25962702	      1.05330699	      0.01821113	     56.66082795	    -13.22769080	     -6.26132163	     72.35964590	      1.26291407	     -9.26521356	    -21.16608268	      0.00000000	     96.65287413	      1.99244272	      6.80117688	     89.39257868	      1.56019482	     -6.60756394	    -11.85010590	      0.00000000	    -42.89781170	      3.55547911	     -2.32185152	     89.74801662	    -14.52136552	     36.43461634	     24.78699256	     89.23647230	      0.00000000	      0.00000000	     89.90129004	     -0.78234808	     15.20196679	     23.47936153	     89.42127009	      0.00000000	      0.00000000
      0.06666667	    -18.43920345	     -1.26454570	      8.36558953	     -0.25937531	      1.05310170	      0.01847333	     57.43205213	    -13.03398946	     -6.19142208	     74.58222015	      1.30170531	     -9.11421184	    -21.14441145	      0.00000000	     95.28507115	      1.76259485	      7.09702355	     87.48529557	      1.52690645	     -6.69492367	    -11.87101243	      0.00000000	    -43.02481673	      3.80819327	     -1.98294506	     89.74895556	    -14.54160242	     36.40266862	     24.90721418	     89.23630587	      0.00000000	      0.00000000	     89.90097558	     -0.77589436	     15.12146303	     23.37921784	     89.42168075	      0.00000000	      0.00000000
      0.07500000	    -18.28030828	     -1.69346842	      8.23051882	     -0.25913784	      1.05313665	      0.01874431	     58.20298298	    -12.75901227	     -6.16792977	     76.67089374	      1.33815954	     -8.89212571	    -21.18071301	      0.00000000	     93.83665681	      1.47671350	      7.47078021	     85.41304366	      1.49073884	     -6.71545062	    -11.90097450	      0.00000000	    -43.13576278	      4.13133691	     -1.55132514	     89.75321906	    -14.54841923	     36.37308339	     24.97325631	     89.22924768	      0.00000000	      0.00000000	     89.90061267	     -0.75880800	     15.06345108	     23.32049703	     89.41913450	      0.00000000	      0.00000000
